<svg id="visual" viewBox="0 0 960 540" width="960" height="540" xmlns="http://www.w3.org/2000/svg" xmlns:xlink="http://www.w3.org/1999/xlink" version="1.1"><path d="M0 97L32 102.2C64 107.3 128 117.7 192 112.5C256 107.3 320 86.7 384 85.7C448 84.7 512 103.3 576 110.8C640 118.3 704 114.7 768 107.7C832 100.7 896 90.3 928 85.2L960 80L960 0L928 0C896 0 832 0 768 0C704 0 640 0 576 0C512 0 448 0 384 0C320 0 256 0 192 0C128 0 64 0 32 0L0 0Z" fill="#FDC93A" stroke-linecap="round" stroke-linejoin="miter"></path></svg>