<svg id="visual" viewBox="0 0 960 540" width="960" height="540" xmlns="http://www.w3.org/2000/svg" xmlns:xlink="http://www.w3.org/1999/xlink" version="1.1"><path d="M0 124L32 134.3C64 144.7 128 165.3 192 178C256 190.7 320 195.3 384 182.2C448 169 512 138 576 119.8C640 101.7 704 96.3 768 101.2C832 106 896 121 928 128.5L960 136L960 0L928 0C896 0 832 0 768 0C704 0 640 0 576 0C512 0 448 0 384 0C320 0 256 0 192 0C128 0 64 0 32 0L0 0Z" fill="#FDC93A" stroke-linecap="round" stroke-linejoin="miter"></path></svg>