<svg id="visual" viewBox="0 0 960 540" width="960" height="540" xmlns="http://www.w3.org/2000/svg" xmlns:xlink="http://www.w3.org/1999/xlink" version="1.1"><path d="M0 72L32 91.7C64 111.3 128 150.7 192 170.2C256 189.7 320 189.3 384 168.3C448 147.3 512 105.7 576 108C640 110.3 704 156.7 768 174.2C832 191.7 896 180.3 928 174.7L960 169L960 0L928 0C896 0 832 0 768 0C704 0 640 0 576 0C512 0 448 0 384 0C320 0 256 0 192 0C128 0 64 0 32 0L0 0Z" fill="#FDC93A" stroke-linecap="round" stroke-linejoin="miter"></path></svg>