<svg id="visual" viewBox="0 0 960 540" width="960" height="540" xmlns="http://www.w3.org/2000/svg" xmlns:xlink="http://www.w3.org/1999/xlink" version="1.1"><path d="M0 142L32 153.8C64 165.7 128 189.3 192 203.8C256 218.3 320 223.7 384 208.5C448 193.3 512 157.7 576 136.8C640 116 704 110 768 115.5C832 121 896 138 928 146.5L960 155L960 0L928 0C896 0 832 0 768 0C704 0 640 0 576 0C512 0 448 0 384 0C320 0 256 0 192 0C128 0 64 0 32 0L0 0Z" fill="#FDC93A" stroke-linecap="round" stroke-linejoin="miter"></path></svg>